<svg width="20" height="20" viewBox="0 0 20 20" fill="none" xmlns="http://www.w3.org/2000/svg">
<path d="M17.2642 10.8833C17.4983 10.649 17.6298 10.3312 17.6298 9.99999C17.6298 9.66874 17.4983 9.35103 17.2642 9.11666L12.5509 4.40083C12.3164 4.16633 11.9983 4.03459 11.6667 4.03459C11.3351 4.03459 11.017 4.16633 10.7825 4.40083C10.548 4.63532 10.4163 4.95337 10.4163 5.28499C10.4163 5.61662 10.548 5.93466 10.7825 6.16916L13.3625 8.74999L3.75003 8.74999C3.41851 8.74999 3.10057 8.88169 2.86615 9.11611C2.63173 9.35053 2.50003 9.66847 2.50003 9.99999C2.50003 10.3315 2.63173 10.6495 2.86615 10.8839C3.10057 11.1183 3.41851 11.25 3.75003 11.25L13.3625 11.25L10.7825 13.83C10.6664 13.9461 10.5743 14.0839 10.5115 14.2357C10.4486 14.3874 10.4163 14.55 10.4163 14.7142C10.4163 14.8784 10.4486 15.041 10.5115 15.1927C10.5743 15.3444 10.6664 15.4822 10.7825 15.5983C10.8986 15.7144 11.0365 15.8065 11.1882 15.8694C11.3399 15.9322 11.5025 15.9646 11.6667 15.9646C11.8309 15.9646 11.9935 15.9322 12.1452 15.8694C12.2969 15.8065 12.4348 15.7144 12.5509 15.5983L17.2642 10.8833Z" fill="#036230"/>
</svg>
