<svg width="20" height="20" viewBox="0 0 20 20" fill="none" xmlns="http://www.w3.org/2000/svg">
<path d="M17.2642 10.8833C17.4983 10.649 17.6298 10.3313 17.6298 10C17.6298 9.66876 17.4983 9.35105 17.2642 9.11667L12.5509 4.40084C12.3164 4.16635 11.9983 4.03461 11.6667 4.03461C11.3351 4.03461 11.017 4.16635 10.7825 4.40084C10.548 4.63534 10.4163 4.95338 10.4163 5.28501C10.4163 5.61663 10.548 5.93468 10.7825 6.16917L13.3625 8.75001L3.75003 8.75001C3.41851 8.75001 3.10056 8.8817 2.86614 9.11612C2.63172 9.35054 2.50003 9.66849 2.50003 10C2.50003 10.3315 2.63172 10.6495 2.86614 10.8839C3.10056 11.1183 3.41851 11.25 3.75003 11.25L13.3625 11.25L10.7825 13.83C10.6664 13.9461 10.5743 14.084 10.5115 14.2357C10.4486 14.3874 10.4163 14.55 10.4163 14.7142C10.4163 14.8784 10.4486 15.041 10.5115 15.1927C10.5743 15.3444 10.6664 15.4822 10.7825 15.5983C10.8986 15.7145 11.0365 15.8066 11.1882 15.8694C11.3399 15.9322 11.5025 15.9646 11.6667 15.9646C11.8309 15.9646 11.9935 15.9322 12.1452 15.8694C12.2969 15.8066 12.4347 15.7145 12.5509 15.5983L17.2642 10.8833Z" fill="#FFFAE9"/>
</svg>
