<svg width="28" height="28" viewBox="0 0 28 28" fill="none" xmlns="http://www.w3.org/2000/svg">
<path d="M19.8333 21C18.5383 21 17.5 22.0383 17.5 23.3333C17.5 23.9522 17.7458 24.5457 18.1834 24.9833C18.621 25.4208 19.2145 25.6667 19.8333 25.6667C20.4521 25.6667 21.0456 25.4208 21.4832 24.9833C21.9208 24.5457 22.1666 23.9522 22.1666 23.3333C22.1666 22.7145 21.9208 22.121 21.4832 21.6834C21.0456 21.2458 20.4521 21 19.8333 21ZM1.16663 2.33334V4.66667H3.49996L7.69996 13.5217L6.11329 16.38C5.93829 16.7067 5.83329 17.0917 5.83329 17.5C5.83329 18.1188 6.07913 18.7123 6.51671 19.1499C6.9543 19.5875 7.54779 19.8333 8.16663 19.8333H22.1666V17.5H8.65663C8.57927 17.5 8.50508 17.4693 8.45039 17.4146C8.39569 17.3599 8.36496 17.2857 8.36496 17.2083C8.36496 17.15 8.37663 17.1033 8.39996 17.0683L9.44996 15.1667H18.1416C19.0166 15.1667 19.7866 14.6767 20.1833 13.965L24.36 6.41667C24.4416 6.23 24.5 6.03167 24.5 5.83334C24.5 5.52392 24.377 5.22717 24.1583 5.00838C23.9395 4.78959 23.6427 4.66667 23.3333 4.66667H6.07829L4.98163 2.33334M8.16663 21C6.87163 21 5.83329 22.0383 5.83329 23.3333C5.83329 23.9522 6.07913 24.5457 6.51671 24.9833C6.9543 25.4208 7.54779 25.6667 8.16663 25.6667C8.78546 25.6667 9.37896 25.4208 9.81654 24.9833C10.2541 24.5457 10.5 23.9522 10.5 23.3333C10.5 22.7145 10.2541 22.121 9.81654 21.6834C9.37896 21.2458 8.78546 21 8.16663 21Z" fill="white"/>
</svg>
