<svg width="28" height="28" viewBox="0 0 28 28" fill="none" xmlns="http://www.w3.org/2000/svg">
<path d="M20.6667 20.6667C19.3717 20.6667 18.3333 21.705 18.3333 23C18.3333 23.6188 18.5792 24.2123 19.0168 24.6499C19.4543 25.0875 20.0478 25.3333 20.6667 25.3333C21.2855 25.3333 21.879 25.0875 22.3166 24.6499C22.7542 24.2123 23 23.6188 23 23C23 22.3812 22.7542 21.7877 22.3166 21.3501C21.879 20.9125 21.2855 20.6667 20.6667 20.6667ZM2 2V4.33333H4.33333L8.53333 13.1883L6.94667 16.0467C6.77167 16.3733 6.66667 16.7583 6.66667 17.1667C6.66667 17.7855 6.9125 18.379 7.35008 18.8166C7.78767 19.2542 8.38116 19.5 9 19.5H23V17.1667H9.49C9.41265 17.1667 9.33846 17.1359 9.28376 17.0812C9.22906 17.0265 9.19833 16.9524 9.19833 16.875C9.19833 16.8167 9.21 16.77 9.23333 16.735L10.2833 14.8333H18.975C19.85 14.8333 20.62 14.3433 21.0167 13.6317L25.1933 6.08333C25.275 5.89667 25.3333 5.69833 25.3333 5.5C25.3333 5.19058 25.2104 4.89383 24.9916 4.67504C24.7728 4.45625 24.4761 4.33333 24.1667 4.33333H6.91167L5.815 2M9 20.6667C7.705 20.6667 6.66667 21.705 6.66667 23C6.66667 23.6188 6.9125 24.2123 7.35008 24.6499C7.78767 25.0875 8.38116 25.3333 9 25.3333C9.61884 25.3333 10.2123 25.0875 10.6499 24.6499C11.0875 24.2123 11.3333 23.6188 11.3333 23C11.3333 22.3812 11.0875 21.7877 10.6499 21.3501C10.2123 20.9125 9.61884 20.6667 9 20.6667Z" fill="#0B0B0B"/>
</svg>
