<svg width="17" height="17" viewBox="0 0 17 17" fill="none" xmlns="http://www.w3.org/2000/svg">
<path d="M12.3529 7.17647H9.76466V4.58823C9.76466 4.24501 9.62831 3.91585 9.38562 3.67315C9.14292 3.43046 8.81376 3.29411 8.47054 3.29411C8.12732 3.29411 7.79815 3.43046 7.55546 3.67315C7.31276 3.91585 7.17642 4.24501 7.17642 4.58823L7.22236 7.17647H4.58818C4.24496 7.17647 3.9158 7.31281 3.67311 7.5555C3.43041 7.7982 3.29407 8.12736 3.29407 8.47058C3.29407 8.8138 3.43041 9.14297 3.67311 9.38566C3.9158 9.62836 4.24496 9.7647 4.58818 9.7647L7.22236 9.71876L7.17642 12.3529C7.17642 12.6962 7.31276 13.0253 7.55546 13.268C7.79815 13.5107 8.12732 13.6471 8.47054 13.6471C8.81376 13.6471 9.14292 13.5107 9.38562 13.268C9.62831 13.0253 9.76466 12.6962 9.76466 12.3529V9.71876L12.3529 9.7647C12.6961 9.7647 13.0253 9.62836 13.268 9.38566C13.5107 9.14297 13.647 8.8138 13.647 8.47058C13.647 8.12736 13.5107 7.7982 13.268 7.5555C13.0253 7.31281 12.6961 7.17647 12.3529 7.17647Z" fill="#036230"/>
</svg>
