<svg width="28" height="28" viewBox="0 0 28 28" fill="none" xmlns="http://www.w3.org/2000/svg">
<path d="M14 4.66667C15.2376 4.66667 16.4246 5.15834 17.2998 6.03351C18.175 6.90868 18.6666 8.09566 18.6666 9.33334C18.6666 10.571 18.175 11.758 17.2998 12.6332C16.4246 13.5083 15.2376 14 14 14C12.7623 14 11.5753 13.5083 10.7001 12.6332C9.82496 11.758 9.33329 10.571 9.33329 9.33334C9.33329 8.09566 9.82496 6.90868 10.7001 6.03351C11.5753 5.15834 12.7623 4.66667 14 4.66667ZM14 16.3333C19.1566 16.3333 23.3333 18.4217 23.3333 21V23.3333H4.66663V21C4.66663 18.4217 8.84329 16.3333 14 16.3333Z" fill="#0B0B0B"/>
</svg>
