<svg width="28" height="28" viewBox="0 0 28 28" fill="none" xmlns="http://www.w3.org/2000/svg">
<path d="M14 4.66666C15.2376 4.66666 16.4246 5.15833 17.2998 6.0335C18.175 6.90867 18.6666 8.09565 18.6666 9.33333C18.6666 10.571 18.175 11.758 17.2998 12.6332C16.4246 13.5083 15.2376 14 14 14C12.7623 14 11.5753 13.5083 10.7001 12.6332C9.82496 11.758 9.33329 10.571 9.33329 9.33333C9.33329 8.09565 9.82496 6.90867 10.7001 6.0335C11.5753 5.15833 12.7623 4.66666 14 4.66666ZM14 16.3333C19.1566 16.3333 23.3333 18.4217 23.3333 21V23.3333H4.66663V21C4.66663 18.4217 8.84329 16.3333 14 16.3333Z" fill="white"/>
</svg>
