<svg width="440" height="70" viewBox="0 0 440 70" fill="none" xmlns="http://www.w3.org/2000/svg">
<path d="M30.72 45.4V17.16H35.2L46.32 34.48H44.04L55.12 17.16H59.64V45.4H53.36V27.76L54.48 28.04L47.24 39.32H43.08L35.88 28.04L36.96 27.76V45.4H30.72ZM65.0559 45.4V17.16H71.3359V45.4H65.0559ZM69.8559 45.4V39.96H85.3359V45.4H69.8559ZM69.8559 33.6V28.36H83.9359V33.6H69.8559ZM69.8559 22.56V17.16H85.1359V22.56H69.8559ZM93.9053 45.4V39.88H100.905C102.612 39.88 104.105 39.5466 105.385 38.88C106.665 38.1866 107.652 37.1866 108.345 35.88C109.039 34.5733 109.385 33.0266 109.385 31.24C109.385 29.4533 109.025 27.92 108.305 26.64C107.612 25.36 106.625 24.3733 105.345 23.68C104.092 22.9866 102.612 22.64 100.905 22.64H93.7053V17.16H100.985C103.119 17.16 105.079 17.5066 106.865 18.2C108.679 18.8666 110.252 19.84 111.585 21.12C112.945 22.3733 113.985 23.8666 114.705 25.6C115.452 27.3066 115.825 29.2 115.825 31.28C115.825 33.3333 115.452 35.2266 114.705 36.96C113.985 38.6933 112.959 40.1866 111.625 41.44C110.292 42.6933 108.719 43.6666 106.905 44.36C105.119 45.0533 103.172 45.4 101.065 45.4H93.9053ZM89.6653 45.4V17.16H95.9453V45.4H89.6653ZM119.822 45.4V17.16H126.102V45.4H119.822ZM129.42 45.4L140.62 17.16H146.3L157.38 45.4H150.74L142.26 21.96H144.54L135.94 45.4H129.42ZM135.78 40.28V35.16H151.18V40.28H135.78ZM175.645 45.84C173.325 45.84 171.325 45.4666 169.645 44.72C167.992 43.9466 166.472 42.7866 165.085 41.24L169.165 37.2C170.072 38.24 171.072 39.0533 172.165 39.64C173.285 40.2 174.579 40.48 176.045 40.48C177.379 40.48 178.405 40.24 179.125 39.76C179.872 39.28 180.245 38.6133 180.245 37.76C180.245 36.9866 180.005 36.36 179.525 35.88C179.045 35.4 178.405 34.9866 177.605 34.64C176.832 34.2933 175.965 33.96 175.005 33.64C174.072 33.32 173.139 32.96 172.205 32.56C171.272 32.1333 170.405 31.6133 169.605 31C168.832 30.36 168.205 29.5733 167.725 28.64C167.245 27.68 167.005 26.48 167.005 25.04C167.005 23.3066 167.419 21.8133 168.245 20.56C169.099 19.3066 170.272 18.36 171.765 17.72C173.259 17.0533 174.979 16.72 176.925 16.72C178.899 16.72 180.699 17.0666 182.325 17.76C183.979 18.4533 185.339 19.4 186.405 20.6L182.325 24.64C181.472 23.76 180.605 23.1066 179.725 22.68C178.872 22.2533 177.899 22.04 176.805 22.04C175.712 22.04 174.845 22.2533 174.205 22.68C173.565 23.08 173.245 23.6666 173.245 24.44C173.245 25.16 173.485 25.7466 173.965 26.2C174.445 26.6266 175.072 27 175.845 27.32C176.645 27.64 177.512 27.96 178.445 28.28C179.405 28.6 180.352 28.9733 181.285 29.4C182.219 29.8266 183.072 30.3733 183.845 31.04C184.645 31.68 185.285 32.5066 185.765 33.52C186.245 34.5066 186.485 35.7333 186.485 37.2C186.485 39.8933 185.525 42.0133 183.605 43.56C181.685 45.08 179.032 45.84 175.645 45.84ZM195.286 35.12V30.24H201.366C202.139 30.24 202.846 30.08 203.486 29.76C204.126 29.44 204.632 28.9733 205.006 28.36C205.379 27.7466 205.566 27 205.566 26.12C205.566 25.2666 205.379 24.5333 205.006 23.92C204.632 23.3066 204.126 22.84 203.486 22.52C202.846 22.2 202.139 22.04 201.366 22.04H195.286V17.16H202.286C204.072 17.16 205.686 17.52 207.126 18.24C208.566 18.96 209.699 20 210.526 21.36C211.379 22.6933 211.806 24.28 211.806 26.12C211.806 27.96 211.379 29.56 210.526 30.92C209.699 32.2533 208.566 33.2933 207.126 34.04C205.686 34.76 204.072 35.12 202.286 35.12H195.286ZM190.486 45.4V17.16H196.766V45.4H190.486ZM229.083 45.88C226.949 45.88 224.976 45.5066 223.163 44.76C221.376 44.0133 219.803 42.9733 218.443 41.64C217.083 40.3066 216.029 38.76 215.283 37C214.536 35.2133 214.163 33.2933 214.163 31.24C214.163 29.16 214.536 27.24 215.283 25.48C216.029 23.72 217.069 22.1866 218.403 20.88C219.736 19.5466 221.296 18.52 223.083 17.8C224.896 17.0533 226.869 16.68 229.003 16.68C231.109 16.68 233.056 17.0533 234.843 17.8C236.656 18.52 238.229 19.5466 239.563 20.88C240.923 22.1866 241.976 23.7333 242.723 25.52C243.469 27.28 243.843 29.2 243.843 31.28C243.843 33.3333 243.469 35.2533 242.723 37.04C241.976 38.8 240.936 40.3466 239.603 41.68C238.269 42.9866 236.696 44.0133 234.883 44.76C233.096 45.5066 231.163 45.88 229.083 45.88ZM229.003 40.16C230.683 40.16 232.149 39.7866 233.403 39.04C234.683 38.2933 235.669 37.2533 236.363 35.92C237.056 34.56 237.403 33 237.403 31.24C237.403 29.9066 237.203 28.7066 236.803 27.64C236.403 26.5466 235.829 25.6133 235.083 24.84C234.336 24.04 233.443 23.44 232.403 23.04C231.389 22.6133 230.256 22.4 229.003 22.4C227.323 22.4 225.843 22.7733 224.563 23.52C223.309 24.24 222.336 25.2666 221.643 26.6C220.949 27.9066 220.603 29.4533 220.603 31.24C220.603 32.5733 220.803 33.7866 221.203 34.88C221.603 35.9733 222.163 36.92 222.883 37.72C223.629 38.4933 224.523 39.0933 225.563 39.52C226.603 39.9466 227.749 40.16 229.003 40.16ZM253.265 45.4V17.56H259.545V45.4H253.265ZM244.425 22.64V17.16H268.385V22.64H244.425ZM271.892 45.4V17.16H278.172V45.4H271.892ZM276.732 45.4V39.88H290.692V45.4H276.732ZM294.314 45.4V17.16H300.594V45.4H294.314ZM319.353 45.84C317.299 45.84 315.366 45.4666 313.553 44.72C311.766 43.9733 310.206 42.9466 308.873 41.64C307.539 40.3066 306.486 38.76 305.713 37C304.966 35.2133 304.593 33.2933 304.593 31.24C304.593 29.1866 304.979 27.28 305.753 25.52C306.526 23.76 307.593 22.2266 308.953 20.92C310.339 19.5866 311.953 18.56 313.793 17.84C315.633 17.0933 317.606 16.72 319.713 16.72C322.139 16.72 324.339 17.16 326.313 18.04C328.313 18.92 329.966 20.1333 331.273 21.68L326.993 25.96C326.086 24.7866 325.019 23.9066 323.793 23.32C322.566 22.7333 321.179 22.44 319.633 22.44C317.979 22.44 316.499 22.8133 315.193 23.56C313.886 24.28 312.859 25.3066 312.113 26.64C311.393 27.9466 311.033 29.48 311.033 31.24C311.033 33 311.393 34.5466 312.113 35.88C312.833 37.2133 313.819 38.2533 315.072 39C316.326 39.7466 317.766 40.12 319.393 40.12C321.046 40.12 322.446 39.8133 323.593 39.2C324.766 38.56 325.659 37.6533 326.273 36.48C326.913 35.28 327.233 33.8266 327.233 32.12L331.393 34.92L318.793 34.72V29.4H333.633V30.32C333.633 33.7066 333.019 36.56 331.793 38.88C330.593 41.1733 328.913 42.9066 326.753 44.08C324.619 45.2533 322.153 45.84 319.353 45.84ZM337.439 45.4V17.16H343.719V45.4H337.439ZM354.919 45.4V17.16H361.239V45.4H354.919ZM341.199 33.6V28.16H356.999V33.6H341.199ZM373.578 45.4V17.56H379.858V45.4H373.578ZM364.738 22.64V17.16H388.698V22.64H364.738ZM399.2 45.84C396.88 45.84 394.88 45.4666 393.2 44.72C391.547 43.9466 390.027 42.7866 388.64 41.24L392.72 37.2C393.627 38.24 394.627 39.0533 395.72 39.64C396.84 40.2 398.133 40.48 399.6 40.48C400.933 40.48 401.96 40.24 402.68 39.76C403.427 39.28 403.8 38.6133 403.8 37.76C403.8 36.9866 403.56 36.36 403.08 35.88C402.6 35.4 401.96 34.9866 401.16 34.64C400.387 34.2933 399.52 33.96 398.56 33.64C397.627 33.32 396.693 32.96 395.76 32.56C394.827 32.1333 393.96 31.6133 393.16 31C392.387 30.36 391.76 29.5733 391.28 28.64C390.8 27.68 390.56 26.48 390.56 25.04C390.56 23.3066 390.973 21.8133 391.8 20.56C392.653 19.3066 393.827 18.36 395.32 17.72C396.813 17.0533 398.533 16.72 400.48 16.72C402.453 16.72 404.253 17.0666 405.88 17.76C407.533 18.4533 408.893 19.4 409.96 20.6L405.88 24.64C405.027 23.76 404.16 23.1066 403.28 22.68C402.427 22.2533 401.453 22.04 400.36 22.04C399.267 22.04 398.4 22.2533 397.76 22.68C397.12 23.08 396.8 23.6666 396.8 24.44C396.8 25.16 397.04 25.7466 397.52 26.2C398 26.6266 398.627 27 399.4 27.32C400.2 27.64 401.067 27.96 402 28.28C402.96 28.6 403.907 28.9733 404.84 29.4C405.773 29.8266 406.627 30.3733 407.4 31.04C408.2 31.68 408.84 32.5066 409.32 33.52C409.8 34.5066 410.04 35.7333 410.04 37.2C410.04 39.8933 409.08 42.0133 407.16 43.56C405.24 45.08 402.587 45.84 399.2 45.84Z" fill="#0B0B0B"/>
<mask id="path-2-inside-1_123_40" fill="white">
<path fill-rule="evenodd" clip-rule="evenodd" d="M73.4583 0H28.6441V2.7H73.4583V0ZM76.1583 0V2.7V5.4H73.4583H28.6441H25.9441V2.7V0H0V61.425H439.375V0H76.1583Z"/>
</mask>
<path d="M28.6441 0V-2.7H25.9441V0H28.6441ZM73.4583 0H76.1583V-2.7H73.4583V0ZM28.6441 2.7H25.9441V5.4H28.6441V2.7ZM73.4583 2.7V5.4H76.1583V2.7H73.4583ZM76.1583 0V-2.7H73.4583V0H76.1583ZM76.1583 5.4V8.1H78.8583V5.4H76.1583ZM25.9441 5.4H23.2441V8.1H25.9441V5.4ZM25.9441 0H28.6441V-2.7H25.9441V0ZM0 0V-2.7H-2.7V0H0ZM0 61.425H-2.7V64.125H0V61.425ZM439.375 61.425V64.125H442.075V61.425H439.375ZM439.375 0H442.075V-2.7H439.375V0ZM28.6441 2.7H73.4583V-2.7H28.6441V2.7ZM25.9441 0V2.7H31.3441V0H25.9441ZM28.6441 5.4H73.4583V0H28.6441V5.4ZM76.1583 2.7V0H70.7583V2.7H76.1583ZM78.8583 2.7V0H73.4583V2.7H78.8583ZM78.8583 5.4V2.7H73.4583V5.4H78.8583ZM73.4583 8.1H76.1583V2.7H73.4583V8.1ZM28.6441 8.1H73.4583V2.7H28.6441V8.1ZM25.9441 8.1H28.6441V2.7H25.9441V8.1ZM23.2441 2.7V5.4H28.6441V2.7H23.2441ZM23.2441 0V2.7H28.6441V0H23.2441ZM0 2.7H25.9441V-2.7H0V2.7ZM2.7 61.425V0H-2.7V61.425H2.7ZM439.375 58.725H0V64.125H439.375V58.725ZM436.675 0V61.425H442.075V0H436.675ZM76.1583 2.7H439.375V-2.7H76.1583V2.7Z" fill="#036230" mask="url(#path-2-inside-1_123_40)"/>
<rect x="338" y="52" width="73" height="18" fill="#FFFAE9"/>
<rect x="365" y="59" width="25" height="2" fill="#036230"/>
</svg>
