<svg width="355" height="71" viewBox="0 0 355 71" fill="none" xmlns="http://www.w3.org/2000/svg">
<path d="M38.2 45.88C36.0667 45.88 34.0933 45.5066 32.28 44.76C30.4933 44.0133 28.92 42.9733 27.56 41.64C26.2 40.3066 25.1467 38.76 24.4 37C23.6533 35.2133 23.28 33.2933 23.28 31.24C23.28 29.16 23.6533 27.24 24.4 25.48C25.1467 23.72 26.1867 22.1866 27.52 20.88C28.8533 19.5466 30.4133 18.52 32.2 17.8C34.0133 17.0533 35.9867 16.68 38.12 16.68C40.2267 16.68 42.1733 17.0533 43.96 17.8C45.7733 18.52 47.3467 19.5466 48.68 20.88C50.04 22.1866 51.0933 23.7333 51.84 25.52C52.5867 27.28 52.96 29.2 52.96 31.28C52.96 33.3333 52.5867 35.2533 51.84 37.04C51.0933 38.8 50.0533 40.3466 48.72 41.68C47.3867 42.9866 45.8133 44.0133 44 44.76C42.2133 45.5066 40.28 45.88 38.2 45.88ZM38.12 40.16C39.8 40.16 41.2667 39.7866 42.52 39.04C43.8 38.2933 44.7867 37.2533 45.48 35.92C46.1733 34.56 46.52 33 46.52 31.24C46.52 29.9066 46.32 28.7066 45.92 27.64C45.52 26.5466 44.9467 25.6133 44.2 24.84C43.4533 24.04 42.56 23.44 41.52 23.04C40.5067 22.6133 39.3733 22.4 38.12 22.4C36.44 22.4 34.96 22.7733 33.68 23.52C32.4267 24.24 31.4533 25.2666 30.76 26.6C30.0667 27.9066 29.72 29.4533 29.72 31.24C29.72 32.5733 29.92 33.7866 30.32 34.88C30.72 35.9733 31.28 36.92 32 37.72C32.7467 38.4933 33.64 39.0933 34.68 39.52C35.72 39.9466 36.8667 40.16 38.12 40.16ZM68.3066 45.84C65.9866 45.84 63.9332 45.3466 62.1466 44.36C60.3866 43.3733 58.9999 42.0133 57.9866 40.28C56.9999 38.52 56.5066 36.52 56.5066 34.28V17.16H62.8266V34.64C62.8266 35.76 63.0666 36.7333 63.5466 37.56C64.0266 38.3866 64.6799 39.0266 65.5066 39.48C66.3599 39.9066 67.2932 40.12 68.3066 40.12C69.3732 40.12 70.3066 39.9066 71.1066 39.48C71.9066 39.0266 72.5332 38.4 72.9866 37.6C73.4666 36.7733 73.7066 35.8 73.7066 34.68V17.16H80.0266V34.32C80.0266 36.56 79.5332 38.5466 78.5466 40.28C77.5599 42.0133 76.1866 43.3733 74.4266 44.36C72.6666 45.3466 70.6266 45.84 68.3066 45.84ZM89.8325 33.76V29.12H95.7925C97.0458 29.12 98.0058 28.8 98.6725 28.16C99.3658 27.52 99.7125 26.6533 99.7125 25.56C99.7125 24.5466 99.3792 23.7066 98.7125 23.04C98.0458 22.3733 97.0858 22.04 95.8325 22.04H89.8325V17.16H96.5525C98.4192 17.16 100.059 17.52 101.473 18.24C102.886 18.9333 103.993 19.9066 104.793 21.16C105.593 22.4133 105.993 23.8533 105.993 25.48C105.993 27.1333 105.593 28.5866 104.793 29.84C103.993 31.0666 102.873 32.0266 101.433 32.72C99.9925 33.4133 98.2992 33.76 96.3525 33.76H89.8325ZM85.0325 45.4V17.16H91.3125V45.4H85.0325ZM100.393 45.4L91.5925 33.24L97.3525 31.68L107.833 45.4H100.393ZM123.543 35.12V30.24H129.623C130.397 30.24 131.103 30.08 131.743 29.76C132.383 29.44 132.89 28.9733 133.263 28.36C133.637 27.7466 133.823 27 133.823 26.12C133.823 25.2666 133.637 24.5333 133.263 23.92C132.89 23.3066 132.383 22.84 131.743 22.52C131.103 22.2 130.397 22.04 129.623 22.04H123.543V17.16H130.543C132.33 17.16 133.943 17.52 135.383 18.24C136.823 18.96 137.957 20 138.783 21.36C139.637 22.6933 140.063 24.28 140.063 26.12C140.063 27.96 139.637 29.56 138.783 30.92C137.957 32.2533 136.823 33.2933 135.383 34.04C133.943 34.76 132.33 35.12 130.543 35.12H123.543ZM118.743 45.4V17.16H125.023V45.4H118.743ZM148.387 33.76V29.12H154.347C155.601 29.12 156.561 28.8 157.227 28.16C157.921 27.52 158.267 26.6533 158.267 25.56C158.267 24.5466 157.934 23.7066 157.267 23.04C156.601 22.3733 155.641 22.04 154.387 22.04H148.387V17.16H155.107C156.974 17.16 158.614 17.52 160.027 18.24C161.441 18.9333 162.547 19.9066 163.347 21.16C164.147 22.4133 164.547 23.8533 164.547 25.48C164.547 27.1333 164.147 28.5866 163.347 29.84C162.547 31.0666 161.427 32.0266 159.987 32.72C158.547 33.4133 156.854 33.76 154.907 33.76H148.387ZM143.587 45.4V17.16H149.867V45.4H143.587ZM158.947 45.4L150.147 33.24L155.907 31.68L166.387 45.4H158.947ZM182.497 45.88C180.364 45.88 178.39 45.5066 176.577 44.76C174.79 44.0133 173.217 42.9733 171.857 41.64C170.497 40.3066 169.444 38.76 168.697 37C167.95 35.2133 167.577 33.2933 167.577 31.24C167.577 29.16 167.95 27.24 168.697 25.48C169.444 23.72 170.484 22.1866 171.817 20.88C173.15 19.5466 174.71 18.52 176.497 17.8C178.31 17.0533 180.284 16.68 182.417 16.68C184.524 16.68 186.47 17.0533 188.257 17.8C190.07 18.52 191.644 19.5466 192.977 20.88C194.337 22.1866 195.39 23.7333 196.137 25.52C196.884 27.28 197.257 29.2 197.257 31.28C197.257 33.3333 196.884 35.2533 196.137 37.04C195.39 38.8 194.35 40.3466 193.017 41.68C191.684 42.9866 190.11 44.0133 188.297 44.76C186.51 45.5066 184.577 45.88 182.497 45.88ZM182.417 40.16C184.097 40.16 185.564 39.7866 186.817 39.04C188.097 38.2933 189.084 37.2533 189.777 35.92C190.47 34.56 190.817 33 190.817 31.24C190.817 29.9066 190.617 28.7066 190.217 27.64C189.817 26.5466 189.244 25.6133 188.497 24.84C187.75 24.04 186.857 23.44 185.817 23.04C184.804 22.6133 183.67 22.4 182.417 22.4C180.737 22.4 179.257 22.7733 177.977 23.52C176.724 24.24 175.75 25.2666 175.057 26.6C174.364 27.9066 174.017 29.4533 174.017 31.24C174.017 32.5733 174.217 33.7866 174.617 34.88C175.017 35.9733 175.577 36.92 176.297 37.72C177.044 38.4933 177.937 39.0933 178.977 39.52C180.017 39.9466 181.164 40.16 182.417 40.16ZM205.483 45.4V39.88H212.483C214.19 39.88 215.683 39.5466 216.963 38.88C218.243 38.1866 219.23 37.1866 219.923 35.88C220.617 34.5733 220.963 33.0266 220.963 31.24C220.963 29.4533 220.603 27.92 219.883 26.64C219.19 25.36 218.203 24.3733 216.923 23.68C215.67 22.9866 214.19 22.64 212.483 22.64H205.283V17.16H212.563C214.697 17.16 216.657 17.5066 218.443 18.2C220.257 18.8666 221.83 19.84 223.163 21.12C224.523 22.3733 225.563 23.8666 226.283 25.6C227.03 27.3066 227.403 29.2 227.403 31.28C227.403 33.3333 227.03 35.2266 226.283 36.96C225.563 38.6933 224.537 40.1866 223.203 41.44C221.87 42.6933 220.297 43.6666 218.483 44.36C216.697 45.0533 214.75 45.4 212.643 45.4H205.483ZM201.243 45.4V17.16H207.523V45.4H201.243ZM242.76 45.84C240.44 45.84 238.386 45.3466 236.6 44.36C234.84 43.3733 233.453 42.0133 232.44 40.28C231.453 38.52 230.96 36.52 230.96 34.28V17.16H237.28V34.64C237.28 35.76 237.52 36.7333 238 37.56C238.48 38.3866 239.133 39.0266 239.96 39.48C240.813 39.9066 241.746 40.12 242.76 40.12C243.826 40.12 244.76 39.9066 245.56 39.48C246.36 39.0266 246.986 38.4 247.44 37.6C247.92 36.7733 248.16 35.8 248.16 34.68V17.16H254.48V34.32C254.48 36.56 253.986 38.5466 253 40.28C252.013 42.0133 250.64 43.3733 248.88 44.36C247.12 45.3466 245.08 45.84 242.76 45.84ZM272.886 45.84C270.779 45.84 268.819 45.48 267.006 44.76C265.219 44.0133 263.646 42.9733 262.286 41.64C260.952 40.3066 259.912 38.76 259.166 37C258.419 35.2133 258.046 33.2933 258.046 31.24C258.046 29.1866 258.419 27.28 259.166 25.52C259.912 23.7333 260.952 22.1866 262.286 20.88C263.619 19.5733 265.179 18.56 266.966 17.84C268.779 17.0933 270.739 16.72 272.846 16.72C275.086 16.72 277.072 17.08 278.806 17.8C280.566 18.52 282.099 19.5066 283.406 20.76L279.206 25C278.459 24.2 277.552 23.5733 276.486 23.12C275.446 22.6666 274.232 22.44 272.846 22.44C271.619 22.44 270.486 22.6533 269.446 23.08C268.432 23.48 267.552 24.0666 266.806 24.84C266.086 25.6133 265.512 26.5466 265.086 27.64C264.686 28.7333 264.486 29.9333 264.486 31.24C264.486 32.5733 264.686 33.7866 265.086 34.88C265.512 35.9733 266.086 36.9066 266.806 37.68C267.552 38.4533 268.432 39.0533 269.446 39.48C270.486 39.9066 271.619 40.12 272.846 40.12C274.286 40.12 275.539 39.8933 276.606 39.44C277.672 38.9866 278.592 38.36 279.366 37.56L283.606 41.8C282.246 43.0533 280.686 44.04 278.926 44.76C277.192 45.48 275.179 45.84 272.886 45.84ZM293.554 45.4V17.56H299.834V45.4H293.554ZM284.714 22.64V17.16H308.674V22.64H284.714ZM319.177 45.84C316.857 45.84 314.857 45.4666 313.177 44.72C311.523 43.9466 310.003 42.7866 308.617 41.24L312.697 37.2C313.603 38.24 314.603 39.0533 315.697 39.64C316.817 40.2 318.11 40.48 319.577 40.48C320.91 40.48 321.937 40.24 322.657 39.76C323.403 39.28 323.777 38.6133 323.777 37.76C323.777 36.9866 323.537 36.36 323.057 35.88C322.577 35.4 321.937 34.9866 321.137 34.64C320.363 34.2933 319.497 33.96 318.537 33.64C317.603 33.32 316.67 32.96 315.737 32.56C314.803 32.1333 313.937 31.6133 313.137 31C312.363 30.36 311.737 29.5733 311.257 28.64C310.777 27.68 310.537 26.48 310.537 25.04C310.537 23.3066 310.95 21.8133 311.777 20.56C312.63 19.3066 313.803 18.36 315.297 17.72C316.79 17.0533 318.51 16.72 320.457 16.72C322.43 16.72 324.23 17.0666 325.857 17.76C327.51 18.4533 328.87 19.4 329.937 20.6L325.857 24.64C325.003 23.76 324.137 23.1066 323.257 22.68C322.403 22.2533 321.43 22.04 320.337 22.04C319.243 22.04 318.377 22.2533 317.737 22.68C317.097 23.08 316.777 23.6666 316.777 24.44C316.777 25.16 317.017 25.7466 317.497 26.2C317.977 26.6266 318.603 27 319.377 27.32C320.177 27.64 321.043 27.96 321.977 28.28C322.937 28.6 323.883 28.9733 324.817 29.4C325.75 29.8266 326.603 30.3733 327.377 31.04C328.177 31.68 328.817 32.5066 329.297 33.52C329.777 34.5066 330.017 35.7333 330.017 37.2C330.017 39.8933 329.057 42.0133 327.137 43.56C325.217 45.08 322.563 45.84 319.177 45.84Z" fill="#0B0B0B"/>
<mask id="path-2-inside-1_123_16" fill="white">
<path fill-rule="evenodd" clip-rule="evenodd" d="M58.725 0H23.625V2.69998H58.725V0ZM61.425 0V2.69998V5.39998H58.725H23.625H20.925V2.69998V0H0V61.425H354.375V0H61.425Z"/>
</mask>
<path d="M23.625 0V-2.7H20.925V0H23.625ZM58.725 0H61.425V-2.7H58.725V0ZM23.625 2.69998H20.925V5.39998H23.625V2.69998ZM58.725 2.69998V5.39998H61.425V2.69998H58.725ZM61.425 0V-2.7H58.725V0H61.425ZM61.425 5.39998V8.09998H64.125V5.39998H61.425ZM20.925 5.39998H18.225V8.09998H20.925V5.39998ZM20.925 0H23.625V-2.7H20.925V0ZM0 0V-2.7H-2.7V0H0ZM0 61.425H-2.7V64.125H0V61.425ZM354.375 61.425V64.125H357.075V61.425H354.375ZM354.375 0H357.075V-2.7H354.375V0ZM23.625 2.7H58.725V-2.7H23.625V2.7ZM20.925 0V2.69998H26.325V0H20.925ZM23.625 5.39998H58.725V-2.43187e-05H23.625V5.39998ZM61.425 2.69998V0H56.025V2.69998H61.425ZM64.125 2.69998V0H58.725V2.69998H64.125ZM64.125 5.39998V2.69998H58.725V5.39998H64.125ZM58.725 8.09998H61.425V2.69998H58.725V8.09998ZM23.625 8.09998H58.725V2.69998H23.625V8.09998ZM20.925 8.09998H23.625V2.69998H20.925V8.09998ZM18.225 2.69998V5.39998H23.625V2.69998H18.225ZM18.225 0V2.69998H23.625V0H18.225ZM0 2.7H20.925V-2.7H0V2.7ZM2.7 61.425V0H-2.7V61.425H2.7ZM354.375 58.725H0V64.125H354.375V58.725ZM351.675 0V61.425H357.075V0H351.675ZM61.425 2.7H354.375V-2.7H61.425V2.7Z" fill="#036230" mask="url(#path-2-inside-1_123_16)"/>
<rect x="260.55" y="51.975" width="73.575" height="18.225" fill="#FFFAE9"/>
<rect x="287.55" y="58.725" width="24.975" height="2.7" fill="#036230"/>
</svg>
