<svg width="302" height="71" viewBox="0 0 302 71" fill="none" xmlns="http://www.w3.org/2000/svg">
<path d="M33.2 45.88C31.0667 45.88 29.0933 45.5066 27.28 44.76C25.4933 44.0133 23.92 42.9733 22.56 41.64C21.2 40.3066 20.1467 38.76 19.4 37C18.6533 35.2133 18.28 33.2933 18.28 31.24C18.28 29.16 18.6533 27.24 19.4 25.48C20.1467 23.72 21.1867 22.1866 22.52 20.88C23.8533 19.5466 25.4133 18.52 27.2 17.8C29.0133 17.0533 30.9867 16.68 33.12 16.68C35.2267 16.68 37.1733 17.0533 38.96 17.8C40.7733 18.52 42.3467 19.5466 43.68 20.88C45.04 22.1866 46.0933 23.7333 46.84 25.52C47.5867 27.28 47.96 29.2 47.96 31.28C47.96 33.3333 47.5867 35.2533 46.84 37.04C46.0933 38.8 45.0533 40.3466 43.72 41.68C42.3867 42.9866 40.8133 44.0133 39 44.76C37.2133 45.5066 35.28 45.88 33.2 45.88ZM33.12 40.16C34.8 40.16 36.2667 39.7866 37.52 39.04C38.8 38.2933 39.7867 37.2533 40.48 35.92C41.1733 34.56 41.52 33 41.52 31.24C41.52 29.9066 41.32 28.7066 40.92 27.64C40.52 26.5466 39.9467 25.6133 39.2 24.84C38.4533 24.04 37.56 23.44 36.52 23.04C35.5067 22.6133 34.3733 22.4 33.12 22.4C31.44 22.4 29.96 22.7733 28.68 23.52C27.4267 24.24 26.4533 25.2666 25.76 26.6C25.0667 27.9066 24.72 29.4533 24.72 31.24C24.72 32.5733 24.92 33.7866 25.32 34.88C25.72 35.9733 26.28 36.92 27 37.72C27.7467 38.4933 28.64 39.0933 29.68 39.52C30.72 39.9466 31.8667 40.16 33.12 40.16ZM63.3066 45.84C60.9866 45.84 58.9332 45.3466 57.1466 44.36C55.3866 43.3733 53.9999 42.0133 52.9866 40.28C51.9999 38.52 51.5066 36.52 51.5066 34.28V17.16H57.8266V34.64C57.8266 35.76 58.0666 36.7333 58.5466 37.56C59.0266 38.3866 59.6799 39.0266 60.5066 39.48C61.3599 39.9066 62.2932 40.12 63.3066 40.12C64.3732 40.12 65.3066 39.9066 66.1066 39.48C66.9066 39.0266 67.5332 38.4 67.9866 37.6C68.4666 36.7733 68.7066 35.8 68.7066 34.68V17.16H75.0266V34.32C75.0266 36.56 74.5332 38.5466 73.5466 40.28C72.5599 42.0133 71.1866 43.3733 69.4266 44.36C67.6666 45.3466 65.6266 45.84 63.3066 45.84ZM84.8325 33.76V29.12H90.7925C92.0458 29.12 93.0058 28.8 93.6725 28.16C94.3658 27.52 94.7125 26.6533 94.7125 25.56C94.7125 24.5466 94.3792 23.7066 93.7125 23.04C93.0458 22.3733 92.0858 22.04 90.8325 22.04H84.8325V17.16H91.5525C93.4192 17.16 95.0592 17.52 96.4725 18.24C97.8858 18.9333 98.9925 19.9066 99.7925 21.16C100.593 22.4133 100.993 23.8533 100.993 25.48C100.993 27.1333 100.593 28.5866 99.7925 29.84C98.9925 31.0666 97.8725 32.0266 96.4325 32.72C94.9925 33.4133 93.2992 33.76 91.3525 33.76H84.8325ZM80.0325 45.4V17.16H86.3125V45.4H80.0325ZM95.3925 45.4L86.5925 33.24L92.3525 31.68L102.833 45.4H95.3925ZM118.543 33.76V29.12H124.503C125.757 29.12 126.717 28.8 127.383 28.16C128.077 27.52 128.423 26.6533 128.423 25.56C128.423 24.5466 128.09 23.7066 127.423 23.04C126.757 22.3733 125.797 22.04 124.543 22.04H118.543V17.16H125.263C127.13 17.16 128.77 17.52 130.183 18.24C131.597 18.9333 132.703 19.9066 133.503 21.16C134.303 22.4133 134.703 23.8533 134.703 25.48C134.703 27.1333 134.303 28.5866 133.503 29.84C132.703 31.0666 131.583 32.0266 130.143 32.72C128.703 33.4133 127.01 33.76 125.063 33.76H118.543ZM113.743 45.4V17.16H120.023V45.4H113.743ZM129.103 45.4L120.303 33.24L126.063 31.68L136.543 45.4H129.103ZM139.29 45.4V17.16H145.57V45.4H139.29ZM144.09 45.4V39.96H159.57V45.4H144.09ZM144.09 33.6V28.36H158.17V33.6H144.09ZM144.09 22.56V17.16H159.37V22.56H144.09ZM176.792 45.84C174.685 45.84 172.725 45.48 170.912 44.76C169.125 44.0133 167.552 42.9733 166.192 41.64C164.859 40.3066 163.819 38.76 163.072 37C162.325 35.2133 161.952 33.2933 161.952 31.24C161.952 29.1866 162.325 27.28 163.072 25.52C163.819 23.7333 164.859 22.1866 166.192 20.88C167.525 19.5733 169.085 18.56 170.872 17.84C172.685 17.0933 174.645 16.72 176.752 16.72C178.992 16.72 180.979 17.08 182.712 17.8C184.472 18.52 186.005 19.5066 187.312 20.76L183.112 25C182.365 24.2 181.459 23.5733 180.392 23.12C179.352 22.6666 178.139 22.44 176.752 22.44C175.525 22.44 174.392 22.6533 173.352 23.08C172.339 23.48 171.459 24.0666 170.712 24.84C169.992 25.6133 169.419 26.5466 168.992 27.64C168.592 28.7333 168.392 29.9333 168.392 31.24C168.392 32.5733 168.592 33.7866 168.992 34.88C169.419 35.9733 169.992 36.9066 170.712 37.68C171.459 38.4533 172.339 39.0533 173.352 39.48C174.392 39.9066 175.525 40.12 176.752 40.12C178.192 40.12 179.445 39.8933 180.512 39.44C181.579 38.9866 182.499 38.36 183.272 37.56L187.512 41.8C186.152 43.0533 184.592 44.04 182.832 44.76C181.099 45.48 179.085 45.84 176.792 45.84ZM190.97 45.4V17.16H197.25V45.4H190.97ZM207.489 35.12V30.24H213.569C214.342 30.24 215.049 30.08 215.689 29.76C216.329 29.44 216.835 28.9733 217.209 28.36C217.582 27.7466 217.769 27 217.769 26.12C217.769 25.2666 217.582 24.5333 217.209 23.92C216.835 23.3066 216.329 22.84 215.689 22.52C215.049 22.2 214.342 22.04 213.569 22.04H207.489V17.16H214.489C216.275 17.16 217.889 17.52 219.329 18.24C220.769 18.96 221.902 20 222.729 21.36C223.582 22.6933 224.009 24.28 224.009 26.12C224.009 27.96 223.582 29.56 222.729 30.92C221.902 32.2533 220.769 33.2933 219.329 34.04C217.889 34.76 216.275 35.12 214.489 35.12H207.489ZM202.689 45.4V17.16H208.969V45.4H202.689ZM227.533 45.4V17.16H233.813V45.4H227.533ZM239.251 45.4V17.16H245.531V45.4H239.251ZM244.051 45.4V39.96H259.531V45.4H244.051ZM244.051 33.6V28.36H258.131V33.6H244.051ZM244.051 22.56V17.16H259.331V22.56H244.051ZM271.638 45.84C269.318 45.84 267.318 45.4666 265.638 44.72C263.984 43.9466 262.464 42.7866 261.078 41.24L265.158 37.2C266.064 38.24 267.064 39.0533 268.158 39.64C269.278 40.2 270.571 40.48 272.038 40.48C273.371 40.48 274.398 40.24 275.118 39.76C275.864 39.28 276.238 38.6133 276.238 37.76C276.238 36.9866 275.998 36.36 275.518 35.88C275.038 35.4 274.398 34.9866 273.598 34.64C272.824 34.2933 271.958 33.96 270.997 33.64C270.064 33.32 269.131 32.96 268.198 32.56C267.264 32.1333 266.398 31.6133 265.598 31C264.824 30.36 264.198 29.5733 263.718 28.64C263.238 27.68 262.998 26.48 262.998 25.04C262.998 23.3066 263.411 21.8133 264.238 20.56C265.091 19.3066 266.264 18.36 267.758 17.72C269.251 17.0533 270.971 16.72 272.918 16.72C274.891 16.72 276.691 17.0666 278.318 17.76C279.971 18.4533 281.331 19.4 282.398 20.6L278.318 24.64C277.464 23.76 276.598 23.1066 275.718 22.68C274.864 22.2533 273.891 22.04 272.798 22.04C271.704 22.04 270.838 22.2533 270.198 22.68C269.558 23.08 269.238 23.6666 269.238 24.44C269.238 25.16 269.478 25.7466 269.958 26.2C270.438 26.6266 271.064 27 271.838 27.32C272.638 27.64 273.504 27.96 274.438 28.28C275.398 28.6 276.344 28.9733 277.278 29.4C278.211 29.8266 279.064 30.3733 279.838 31.04C280.638 31.68 281.278 32.5066 281.758 33.52C282.238 34.5066 282.477 35.7333 282.477 37.2C282.477 39.8933 281.518 42.0133 279.598 43.56C277.678 45.08 275.024 45.84 271.638 45.84Z" fill="#FFFAE9"/>
<mask id="path-2-inside-1_123_24" fill="white">
<path fill-rule="evenodd" clip-rule="evenodd" d="M47.3 0H21.7V2.3H47.3V0ZM50 0V2.3V5H47.3H21.7H19V2.3V0H0V61.425H302V0H50Z"/>
</mask>
<path d="M21.7 0V-2.7H19V0H21.7ZM47.3 0H50V-2.7H47.3V0ZM21.7 2.3H19V5H21.7V2.3ZM47.3 2.3V5H50V2.3H47.3ZM50 0V-2.7H47.3V0H50ZM50 5V7.7H52.7V5H50ZM19 5H16.3V7.7H19V5ZM19 0H21.7V-2.7H19V0ZM0 0V-2.7H-2.7V0H0ZM0 61.425H-2.7V64.125H0V61.425ZM302 61.425V64.125H304.7V61.425H302ZM302 0H304.7V-2.7H302V0ZM21.7 2.7H47.3V-2.7H21.7V2.7ZM19 0V2.3H24.4V0H19ZM21.7 5H47.3V-0.4H21.7V5ZM50 2.3V0H44.6V2.3H50ZM52.7 2.3V0H47.3V2.3H52.7ZM52.7 5V2.3H47.3V5H52.7ZM47.3 7.7H50V2.3H47.3V7.7ZM21.7 7.7H47.3V2.3H21.7V7.7ZM19 7.7H21.7V2.3H19V7.7ZM16.3 2.3V5H21.7V2.3H16.3ZM16.3 0V2.3H21.7V0H16.3ZM0 2.7H19V-2.7H0V2.7ZM2.7 61.425V0H-2.7V61.425H2.7ZM302 58.725H0V64.125H302V58.725ZM299.3 0V61.425H304.7V0H299.3ZM50 2.7H302V-2.7H50V2.7Z" fill="#A0C239" mask="url(#path-2-inside-1_123_24)"/>
<rect x="222.042" y="51.975" width="62.701" height="18.225" fill="#036230"/>
<rect x="245.051" y="58.725" width="21.2838" height="2.7" fill="#A0C239"/>
</svg>
