<svg width="329" height="71" viewBox="0 0 329 71" fill="none" xmlns="http://www.w3.org/2000/svg">
<path d="M48.76 45.4L39.68 17.16H45.92L52.56 38.88H50.12L56.6 17.16H61.52L68 38.88H65.6L72.2 17.16H78.4L69.32 45.4H64.4L57.88 23.68H60.2L53.68 45.4H48.76ZM81.7981 45.4V17.16H88.0781V45.4H81.7981ZM99.2781 45.4V17.16H105.598V45.4H99.2781ZM85.5581 33.6V28.16H101.358V33.6H85.5581ZM119.697 34.88L108.817 17.16H116.097L124.457 31.48H119.777L128.137 17.16H135.257L124.297 34.88H119.697ZM118.937 45.4V32H125.217V45.4H118.937ZM152.002 45.4L142.922 17.16H149.162L155.802 38.88H153.362L159.842 17.16H164.762L171.242 38.88H168.842L175.442 17.16H181.642L172.562 45.4H167.642L161.122 23.68H163.442L156.922 45.4H152.002ZM179.795 45.4L190.995 17.16H196.675L207.755 45.4H201.115L192.635 21.96H194.915L186.315 45.4H179.795ZM186.155 40.28V35.16H201.555V40.28H186.155ZM227.823 45.4L216.383 30.68L227.463 17.16H235.223L222.743 31.84V29.28L235.623 45.4H227.823ZM210.743 45.4V17.16H217.023V45.4H210.743ZM235.303 45.4L246.503 17.16H252.183L263.263 45.4H256.623L248.143 21.96H250.423L241.823 45.4H235.303ZM241.663 40.28V35.16H257.063V40.28H241.663ZM278.208 45.88C276.074 45.88 274.101 45.5066 272.288 44.76C270.501 44.0133 268.928 42.9733 267.568 41.64C266.208 40.3066 265.154 38.76 264.408 37C263.661 35.2133 263.288 33.2933 263.288 31.24C263.288 29.16 263.661 27.24 264.408 25.48C265.154 23.72 266.194 22.1866 267.528 20.88C268.861 19.5466 270.421 18.52 272.208 17.8C274.021 17.0533 275.994 16.68 278.128 16.68C280.234 16.68 282.181 17.0533 283.968 17.8C285.781 18.52 287.354 19.5466 288.688 20.88C290.048 22.1866 291.101 23.7333 291.848 25.52C292.594 27.28 292.968 29.2 292.968 31.28C292.968 33.3333 292.594 35.2533 291.848 37.04C291.101 38.8 290.061 40.3466 288.728 41.68C287.394 42.9866 285.821 44.0133 284.008 44.76C282.221 45.5066 280.288 45.88 278.208 45.88ZM278.128 40.16C279.808 40.16 281.274 39.7866 282.528 39.04C283.808 38.2933 284.794 37.2533 285.488 35.92C286.181 34.56 286.528 33 286.528 31.24C286.528 29.9066 286.328 28.7066 285.928 27.64C285.528 26.5466 284.954 25.6133 284.208 24.84C283.461 24.04 282.568 23.44 281.528 23.04C280.514 22.6133 279.381 22.4 278.128 22.4C276.448 22.4 274.968 22.7733 273.688 23.52C272.434 24.24 271.461 25.2666 270.768 26.6C270.074 27.9066 269.728 29.4533 269.728 31.24C269.728 32.5733 269.928 33.7866 270.328 34.88C270.728 35.9733 271.288 36.92 272.008 37.72C272.754 38.4933 273.648 39.0933 274.688 39.52C275.728 39.9466 276.874 40.16 278.128 40.16ZM302.234 35.2L301.914 27.52H303.634C304.301 27.52 304.874 27.4 305.354 27.16C305.861 26.92 306.248 26.5866 306.514 26.16C306.808 25.7066 306.954 25.1733 306.954 24.56C306.954 23.9733 306.821 23.4666 306.554 23.04C306.288 22.5866 305.914 22.2533 305.434 22.04C304.954 21.8 304.394 21.68 303.754 21.68C302.768 21.68 301.861 21.9733 301.034 22.56C300.234 23.12 299.581 23.8933 299.074 24.88L295.154 21.2C295.954 19.6266 297.114 18.36 298.634 17.4C300.154 16.4133 301.954 15.92 304.034 15.92C305.768 15.92 307.301 16.28 308.634 17C309.968 17.72 311.008 18.7066 311.754 19.96C312.501 21.1866 312.874 22.5733 312.874 24.12C312.874 25.6933 312.554 27.04 311.914 28.16C311.274 29.28 310.408 30.2 309.314 30.92C308.221 31.6133 306.981 32.1066 305.594 32.4L307.394 30.04L307.034 35.2H302.234ZM304.634 45.84C303.568 45.84 302.688 45.48 301.994 44.76C301.328 44.04 300.994 43.1733 300.994 42.16C300.994 41.0933 301.328 40.2133 301.994 39.52C302.688 38.8 303.568 38.44 304.634 38.44C305.674 38.44 306.528 38.8 307.194 39.52C307.888 40.2133 308.234 41.0933 308.234 42.16C308.234 43.1733 307.888 44.04 307.194 44.76C306.528 45.48 305.674 45.84 304.634 45.84Z" fill="#0B0B0B"/>
<mask id="path-2-inside-1_123_32" fill="white">
<path fill-rule="evenodd" clip-rule="evenodd" d="M54.3267 0H22.1267V2.7H54.3267V0ZM57.0267 0V2.7V5.4H54.3267H22.1267H19.4267V2.7V0H0V61.425H329V0H57.0267Z"/>
</mask>
<path d="M22.1267 0V-2.7H19.4267V0H22.1267ZM54.3267 0H57.0267V-2.7H54.3267V0ZM22.1267 2.7H19.4267V5.4H22.1267V2.7ZM54.3267 2.7V5.4H57.0267V2.7H54.3267ZM57.0267 0V-2.7H54.3267V0H57.0267ZM57.0267 5.4V8.1H59.7267V5.4H57.0267ZM19.4267 5.4H16.7267V8.1H19.4267V5.4ZM19.4267 0H22.1267V-2.7H19.4267V0ZM0 0V-2.7H-2.7V0H0ZM0 61.425H-2.7V64.125H0V61.425ZM329 61.425V64.125H331.7V61.425H329ZM329 0H331.7V-2.7H329V0ZM22.1267 2.7H54.3267V-2.7H22.1267V2.7ZM19.4267 0V2.7H24.8267V0H19.4267ZM22.1267 5.4H54.3267V0H22.1267V5.4ZM57.0267 2.7V0H51.6267V2.7H57.0267ZM59.7267 2.7V0H54.3267V2.7H59.7267ZM59.7267 5.4V2.7H54.3267V5.4H59.7267ZM54.3267 8.1H57.0267V2.7H54.3267V8.1ZM22.1267 8.1H54.3267V2.7H22.1267V8.1ZM19.4267 8.1H22.1267V2.7H19.4267V8.1ZM16.7267 2.7V5.4H22.1267V2.7H16.7267ZM16.7267 0V2.7H22.1267V0H16.7267ZM0 2.7H19.4267V-2.7H0V2.7ZM2.7 61.425V0H-2.7V61.425H2.7ZM329 58.725H0V64.125H329V58.725ZM326.3 0V61.425H331.7V0H326.3ZM57.0267 2.7H329V-2.7H57.0267V2.7Z" fill="#036230" mask="url(#path-2-inside-1_123_32)"/>
<rect x="241.893" y="51.9751" width="68.3067" height="18.225" fill="#FFFAE9"/>
<rect x="266.96" y="58.7251" width="23.1867" height="2.7" fill="#036230"/>
</svg>
